<svg width="492" height="158" viewBox="0 0 492 158" fill="none" xmlns="http://www.w3.org/2000/svg">
<path d="M60.6121 2.48371C22.4582 12.9357 -2.65753 45.5295 0.224601 81.424C2.42051 109.754 19.9878 136.985 43.4566 148.812C58.6907 156.376 70.4935 158.439 93.6883 157.614C115.922 156.926 129.784 153.488 147.762 144.411C168.761 133.822 201.562 110.304 222.835 90.5009C261.812 54.3315 288.712 33.7019 302.3 29.8512C305.319 29.0262 308.475 27.7884 309.162 27.2384C311.22 25.4505 300.103 23.2499 288.575 23.2499C265.38 23.2499 247.676 32.1897 213.365 60.9321C160.252 105.629 138.43 119.656 111.118 126.533C96.0213 130.383 74.6107 129.696 62.808 125.158C41.9469 117.181 29.7321 99.3023 29.7321 76.4733C29.5949 67.2585 30.2811 64.6456 33.9867 56.9443C48.2601 27.9262 92.453 19.9492 132.803 39.066C146.802 45.8045 157.781 52.5437 170.27 62.17C179.74 69.4591 181.25 70.147 183.308 68.4963C190.034 63.4078 202.935 51.718 202.935 50.893C202.935 48.1423 162.722 20.912 147.076 13.0729C128.823 3.99655 115.785 0.970892 91.7666 0.420892C73.925 0.00806035 68.8469 0.283045 60.6121 2.48371Z" fill="black"/>
<path d="M377.372 1.93373C363.922 4.9594 355.687 7.84722 342.649 14.5857C321.513 25.4505 292.143 46.6295 269.361 67.5335C243.97 90.776 235.05 98.4773 222.697 107.829C207.189 119.656 194.425 127.358 187.151 129.283C182.348 130.658 182.073 130.933 184.407 132.309C185.916 133.134 193.053 134.097 200.327 134.372C225.717 135.472 242.735 127.358 279.654 96.2766C343.747 42.5039 369 28.7512 404.135 28.7512C439.407 28.7512 462.601 49.3802 462.601 81.149C462.738 97.7895 456.425 109.342 442.7 118.281C420.055 132.997 389.175 132.997 358.295 118.143C345.668 112.092 330.984 102.878 319.318 93.6638C310.397 86.6503 312.456 86.2375 297.77 98.7523L288.986 106.316L295.025 111.68C303.672 119.381 331.807 137.947 344.434 144.274C350.335 147.299 360.628 151.425 367.216 153.488C378.196 156.789 381.352 157.201 402.625 157.201C423.074 157.339 427.191 156.926 435.563 154.313C460.542 146.337 481.266 126.67 489.226 103.016C493.344 91.051 492.795 69.597 488.128 56.5315C483.05 42.6417 476.874 32.4647 467.13 22.6999C451.21 6.47224 432.27 -0.266932 403.449 0.00806777C393.979 0.00806777 382.175 0.970903 377.372 1.93373Z" fill="black"/>
</svg>
